<?xml version="1.0" encoding="UTF-8" standalone="no"?>
<!-- Generator: Adobe Illustrator 17.0.1, SVG Export Plug-In . SVG Version: 6.00 Build 0)  -->

<svg
   xmlns:dc="http://purl.org/dc/elements/1.1/"
   xmlns:cc="http://creativecommons.org/ns#"
   xmlns:rdf="http://www.w3.org/1999/02/22-rdf-syntax-ns#"
   xmlns:svg="http://www.w3.org/2000/svg"
   xmlns="http://www.w3.org/2000/svg"
   xmlns:xlink="http://www.w3.org/1999/xlink"
   xmlns:sodipodi="http://sodipodi.sourceforge.net/DTD/sodipodi-0.dtd"
   xmlns:inkscape="http://www.inkscape.org/namespaces/inkscape"
   version="1.1"
   x="0px"
   y="0px"
   width="86px"
   height="86px"
   viewBox="0 0 86 86"
   enable-background="new 0 0 86 86"
   xml:space="preserve"
   id="svg2"
   inkscape:version="0.48.4 r9939"
   sodipodi:docname="harbour-squilla.svg"
   inkscape:export-filename="/home/titilambert/projects/harbour-squilla/data/harbour-squilla.png"
   inkscape:export-xdpi="90.633377"
   inkscape:export-ydpi="90.633377"><metadata
     id="metadata25"><rdf:RDF><cc:Work
         rdf:about=""><dc:format>image/svg+xml</dc:format><dc:type
           rdf:resource="http://purl.org/dc/dcmitype/StillImage" /><dc:title></dc:title></cc:Work></rdf:RDF></metadata><defs
     id="defs23"><linearGradient
       id="linearGradient9149"><stop
         style="stop-color:#003866;stop-opacity:1;"
         offset="0"
         id="stop9151" /><stop
         style="stop-color:#237ac0;stop-opacity:1;"
         offset="1"
         id="stop9153" /></linearGradient><linearGradient
       id="linearGradient7118"><stop
         style="stop-color:#008344;stop-opacity:1;"
         offset="0"
         id="stop7120" /><stop
         id="stop9139"
         offset="0.3059642"
         style="stop-color:#54d739;stop-opacity:1;" /><stop
         id="stop9137"
         offset="0.65973532"
         style="stop-color:#24a89e;stop-opacity:1;" /><stop
         id="stop9177"
         offset="0.9149338"
         style="stop-color:#e8cf13;stop-opacity:1;" /><stop
         style="stop-color:#f33b82;stop-opacity:1;"
         offset="1"
         id="stop7122" /></linearGradient><linearGradient
       inkscape:collect="always"
       xlink:href="#linearGradient7118"
       id="linearGradient7124"
       x1="11.611085"
       y1="57.534859"
       x2="78.713242"
       y2="57.534859"
       gradientUnits="userSpaceOnUse"
       gradientTransform="matrix(1.1707185,0,0,1.2662299,-13.433222,-5.4854889)" /><linearGradient
       inkscape:collect="always"
       xlink:href="#linearGradient9149"
       id="linearGradient9155"
       x1="43.060097"
       y1="85.941284"
       x2="43.301273"
       y2="0.23990232"
       gradientUnits="userSpaceOnUse" /></defs><sodipodi:namedview
     pagecolor="#ffffff"
     bordercolor="#666666"
     borderopacity="1"
     objecttolerance="10"
     gridtolerance="10"
     guidetolerance="10"
     inkscape:pageopacity="0"
     inkscape:pageshadow="2"
     inkscape:window-width="1364"
     inkscape:window-height="718"
     id="namedview21"
     showgrid="false"
     inkscape:zoom="3.9026384"
     inkscape:cx="10.536354"
     inkscape:cy="39.260742"
     inkscape:window-x="0"
     inkscape:window-y="0"
     inkscape:window-maximized="1"
     inkscape:current-layer="Layer_1" /><g
     id="Layer_2"
     display="none" /><g
     id="Layer_1"
     transform="matrix(0,1,-1,0,85.9995,4.9998038e-4)"><linearGradient
       id="SVGID_1_"
       gradientUnits="userSpaceOnUse"
       x1="42.797619"
       y1="85.132988"
       x2="43.202579"
       y2="0.26665461"><stop
         offset="0"
         style="stop-color:#2BBD99"
         id="stop7" /></linearGradient><path
       d="M 43,0.3 C 19.417,0.3 0.3,19.418 0.3,43 c 0,0.408 0,41.277 0,41.277 0,0.786 0.637,1.423 1.423,1.423 h 82.553 c 0.786,0 1.423,-0.637 1.423,-1.423 0,0 0,-40.908 0,-41.277 C 85.7,19.418 66.583,0.3 43,0.3 z"
       id="path11"
       style="fill:url(#linearGradient9155);fill-opacity:1;stroke-width:1.10000000000000009;stroke-miterlimit:4;stroke-dasharray:none;stroke-linecap:round;stroke-linejoin:round"
       inkscape:connector-curvature="0" /><path
       style="fill:url(#linearGradient7124);fill-opacity:1;stroke:none"
       d="m 0.3,54.156834 c 13.63261,0 12.337248,0 37.643944,0 C 57.928277,53.09068 73.59917,52.309971 78.577911,80.954975 70.243615,60.295861 59.467131,58.912214 50.153298,59.010677 54.505016,61.3869 60.247868,60.33868 66.967601,77.930631 57.302176,65.751215 54.732494,62.58915 43.406306,61.900877 c 0,0 6.990132,2.766729 11.347209,14.309417 -8.757902,-8.873417 -10.370792,-12.374736 -21.111142,-12.661517 0,0 5.574753,1.816766 10.561941,11.590967 -10.732564,-9.315019 -11.116503,-9.45569 -18.367833,-9.374575 0,0 3.803179,1.632229 7.027978,8.770236 -6.863862,-5.927463 -13.078901,-8.446474 -15.37156,-8.267312 0.676983,0.529808 3.908504,2.039531 6.490035,7.478221 C 14.918609,66.645689 10.899481,65.609976 9.1140149,65.609976 l -8.8140149,0 z"
       inkscape:connector-curvature="0"
       sodipodi:nodetypes="cccccccccccccccc"
       id="path7112" /><path
       style="fill:none;stroke:#ffffff;stroke-width:3;stroke-linecap:round;stroke-linejoin:round;stroke-miterlimit:4;stroke-opacity:1;stroke-dasharray:none"
       d="m 13.722393,27.083285 c 14.578156,-25.2501105 45.598217,-22.4404475 58.554215,0"
       id="path5219-9"
       inkscape:connector-curvature="0"
       sodipodi:nodetypes="cc" /><path
       style="fill:none;stroke:#ffffff;stroke-width:3;stroke-linecap:round;stroke-linejoin:round;stroke-miterlimit:4;stroke-opacity:1;stroke-dasharray:none"
       d="m 19.495853,37.176047 c 14.578156,-25.25011 34.067555,-22.440447 47.023554,0"
       id="path5219-9-4"
       inkscape:connector-curvature="0"
       sodipodi:nodetypes="cc" /><path
       style="fill:none;stroke:#ffffff;stroke-width:3;stroke-linecap:round;stroke-linejoin:round;stroke-miterlimit:4;stroke-opacity:1;stroke-dasharray:none"
       d="m 25.269313,47.268809 c 12.912616,-21.662794 22.536894,-22.440448 35.492892,0"
       id="path5219-9-4-5"
       inkscape:connector-curvature="0"
       sodipodi:nodetypes="cc" /></g></svg>